<mxfile host="Electron" modified="2024-04-25T18:47:12.009Z" agent="Mozilla/5.0 (Windows NT 10.0; Win64; x64) AppleWebKit/537.36 (KHTML, like Gecko) draw.io/24.2.5 Chrome/120.0.6099.109 Electron/28.1.0 Safari/537.36" etag="Cn39kFRESiONGo7gOWYt" version="24.2.5" type="device">
  <diagram id="R2lEEEUBdFMjLlhIrx00" name="Page-1">
    <mxGraphModel dx="3389" dy="2374" grid="1" gridSize="10" guides="1" tooltips="1" connect="1" arrows="1" fold="1" page="1" pageScale="1" pageWidth="850" pageHeight="1100" math="0" shadow="0" extFonts="Permanent Marker^https://fonts.googleapis.com/css?family=Permanent+Marker">
      <root>
        <mxCell id="0" />
        <mxCell id="1" parent="0" />
        <mxCell id="JxSoEKTKCqCzWXoLidXe-54" style="edgeStyle=orthogonalEdgeStyle;rounded=0;orthogonalLoop=1;jettySize=auto;html=1;endArrow=oval;endFill=1;entryX=0.831;entryY=-0.105;entryDx=0;entryDy=0;entryPerimeter=0;exitX=0.608;exitY=1.017;exitDx=0;exitDy=0;exitPerimeter=0;" parent="1" source="JxSoEKTKCqCzWXoLidXe-1" target="JxSoEKTKCqCzWXoLidXe-55" edge="1">
          <mxGeometry relative="1" as="geometry">
            <mxPoint x="-730" y="90" as="targetPoint" />
          </mxGeometry>
        </mxCell>
        <mxCell id="JxSoEKTKCqCzWXoLidXe-56" style="edgeStyle=orthogonalEdgeStyle;rounded=0;orthogonalLoop=1;jettySize=auto;html=1;endArrow=ERzeroToMany;endFill=0;" parent="1" source="JxSoEKTKCqCzWXoLidXe-1" edge="1">
          <mxGeometry relative="1" as="geometry">
            <mxPoint x="-770" as="targetPoint" />
            <Array as="points">
              <mxPoint x="-700" y="70" />
              <mxPoint x="-700" y="50" />
              <mxPoint x="-720" y="50" />
              <mxPoint x="-720" />
            </Array>
          </mxGeometry>
        </mxCell>
        <mxCell id="JxSoEKTKCqCzWXoLidXe-62" style="edgeStyle=orthogonalEdgeStyle;rounded=0;orthogonalLoop=1;jettySize=auto;html=1;endArrow=oval;endFill=0;" parent="1" edge="1">
          <mxGeometry relative="1" as="geometry">
            <mxPoint x="-660" y="20" as="targetPoint" />
            <mxPoint x="-660" y="60" as="sourcePoint" />
          </mxGeometry>
        </mxCell>
        <mxCell id="JxSoEKTKCqCzWXoLidXe-126" style="edgeStyle=none;rounded=0;orthogonalLoop=1;jettySize=auto;html=1;entryX=0;entryY=0.5;entryDx=0;entryDy=0;endArrow=block;endFill=1;exitX=1;exitY=0;exitDx=0;exitDy=0;" parent="1" source="JxSoEKTKCqCzWXoLidXe-1" target="JxSoEKTKCqCzWXoLidXe-2" edge="1">
          <mxGeometry relative="1" as="geometry">
            <Array as="points">
              <mxPoint x="-570" />
            </Array>
          </mxGeometry>
        </mxCell>
        <mxCell id="JxSoEKTKCqCzWXoLidXe-192" style="edgeStyle=none;rounded=0;orthogonalLoop=1;jettySize=auto;html=1;entryX=1;entryY=0.5;entryDx=0;entryDy=0;endArrow=classic;endFill=1;" parent="1" source="JxSoEKTKCqCzWXoLidXe-1" target="JxSoEKTKCqCzWXoLidXe-191" edge="1">
          <mxGeometry relative="1" as="geometry" />
        </mxCell>
        <mxCell id="JxSoEKTKCqCzWXoLidXe-196" style="edgeStyle=none;rounded=0;orthogonalLoop=1;jettySize=auto;html=1;endArrow=oval;endFill=0;" parent="1" source="JxSoEKTKCqCzWXoLidXe-1" target="JxSoEKTKCqCzWXoLidXe-195" edge="1">
          <mxGeometry relative="1" as="geometry" />
        </mxCell>
        <mxCell id="Wr1tdi9X-l9FbxtCBq4g-56" style="edgeStyle=none;rounded=0;orthogonalLoop=1;jettySize=auto;html=1;entryX=1;entryY=0.5;entryDx=0;entryDy=0;endArrow=classic;endFill=1;" parent="1" source="JxSoEKTKCqCzWXoLidXe-1" target="Wr1tdi9X-l9FbxtCBq4g-55" edge="1">
          <mxGeometry relative="1" as="geometry" />
        </mxCell>
        <mxCell id="JxSoEKTKCqCzWXoLidXe-1" value="Profesor&lt;br&gt;" style="whiteSpace=wrap;html=1;" parent="1" vertex="1">
          <mxGeometry x="-690" y="60" width="120" height="60" as="geometry" />
        </mxCell>
        <mxCell id="JxSoEKTKCqCzWXoLidXe-2" value="Es jefe" style="rhombus;whiteSpace=wrap;html=1;" parent="1" vertex="1">
          <mxGeometry x="-410" y="-40" width="80" height="80" as="geometry" />
        </mxCell>
        <mxCell id="JxSoEKTKCqCzWXoLidXe-65" style="edgeStyle=orthogonalEdgeStyle;rounded=0;orthogonalLoop=1;jettySize=auto;html=1;exitX=0.75;exitY=0;exitDx=0;exitDy=0;endArrow=oval;endFill=1;" parent="1" source="JxSoEKTKCqCzWXoLidXe-3" edge="1">
          <mxGeometry relative="1" as="geometry">
            <mxPoint x="-120" y="20" as="targetPoint" />
          </mxGeometry>
        </mxCell>
        <mxCell id="JxSoEKTKCqCzWXoLidXe-69" style="edgeStyle=orthogonalEdgeStyle;rounded=0;orthogonalLoop=1;jettySize=auto;html=1;endArrow=oval;endFill=0;" parent="1" source="JxSoEKTKCqCzWXoLidXe-3" edge="1">
          <mxGeometry relative="1" as="geometry">
            <mxPoint x="-150" y="140" as="targetPoint" />
          </mxGeometry>
        </mxCell>
        <mxCell id="JxSoEKTKCqCzWXoLidXe-70" style="edgeStyle=orthogonalEdgeStyle;rounded=0;orthogonalLoop=1;jettySize=auto;html=1;endArrow=oval;endFill=0;exitX=1;exitY=1;exitDx=0;exitDy=0;" parent="1" source="JxSoEKTKCqCzWXoLidXe-3" edge="1">
          <mxGeometry relative="1" as="geometry">
            <mxPoint x="-90" y="140" as="targetPoint" />
          </mxGeometry>
        </mxCell>
        <mxCell id="JxSoEKTKCqCzWXoLidXe-3" value="Departamento" style="rounded=0;whiteSpace=wrap;html=1;" parent="1" vertex="1">
          <mxGeometry x="-210" y="60" width="120" height="60" as="geometry" />
        </mxCell>
        <mxCell id="JxSoEKTKCqCzWXoLidXe-105" style="edgeStyle=none;rounded=0;orthogonalLoop=1;jettySize=auto;html=1;entryX=0.5;entryY=0;entryDx=0;entryDy=0;endArrow=classic;endFill=1;" parent="1" target="JxSoEKTKCqCzWXoLidXe-104" edge="1">
          <mxGeometry relative="1" as="geometry">
            <mxPoint x="-465" y="570" as="sourcePoint" />
          </mxGeometry>
        </mxCell>
        <mxCell id="JxSoEKTKCqCzWXoLidXe-114" style="edgeStyle=none;rounded=0;orthogonalLoop=1;jettySize=auto;html=1;entryX=0.5;entryY=1;entryDx=0;entryDy=0;endArrow=block;endFill=1;exitX=0.75;exitY=0;exitDx=0;exitDy=0;" parent="1" source="JxSoEKTKCqCzWXoLidXe-4" target="JxSoEKTKCqCzWXoLidXe-112" edge="1">
          <mxGeometry relative="1" as="geometry">
            <Array as="points">
              <mxPoint x="-350" y="410" />
            </Array>
          </mxGeometry>
        </mxCell>
        <mxCell id="JxSoEKTKCqCzWXoLidXe-121" style="edgeStyle=none;rounded=0;orthogonalLoop=1;jettySize=auto;html=1;entryX=0;entryY=0.5;entryDx=0;entryDy=0;endArrow=block;endFill=1;exitX=1;exitY=0;exitDx=0;exitDy=0;" parent="1" source="JxSoEKTKCqCzWXoLidXe-4" target="JxSoEKTKCqCzWXoLidXe-120" edge="1">
          <mxGeometry relative="1" as="geometry">
            <Array as="points" />
          </mxGeometry>
        </mxCell>
        <mxCell id="JxSoEKTKCqCzWXoLidXe-232" style="edgeStyle=none;rounded=0;orthogonalLoop=1;jettySize=auto;html=1;entryX=0.571;entryY=1;entryDx=0;entryDy=0;entryPerimeter=0;endArrow=oval;endFill=1;" parent="1" source="JxSoEKTKCqCzWXoLidXe-4" target="JxSoEKTKCqCzWXoLidXe-231" edge="1">
          <mxGeometry relative="1" as="geometry" />
        </mxCell>
        <mxCell id="JxSoEKTKCqCzWXoLidXe-233" style="edgeStyle=none;rounded=0;orthogonalLoop=1;jettySize=auto;html=1;endArrow=oval;endFill=0;exitX=0.367;exitY=-0.017;exitDx=0;exitDy=0;exitPerimeter=0;entryX=1.031;entryY=1.2;entryDx=0;entryDy=0;entryPerimeter=0;" parent="1" source="JxSoEKTKCqCzWXoLidXe-96" target="JxSoEKTKCqCzWXoLidXe-234" edge="1">
          <mxGeometry relative="1" as="geometry">
            <mxPoint x="-520" y="590" as="targetPoint" />
          </mxGeometry>
        </mxCell>
        <mxCell id="JxSoEKTKCqCzWXoLidXe-235" style="edgeStyle=none;rounded=0;orthogonalLoop=1;jettySize=auto;html=1;endArrow=oval;endFill=0;entryX=0.079;entryY=1.012;entryDx=0;entryDy=0;entryPerimeter=0;exitX=0.5;exitY=0;exitDx=0;exitDy=0;" parent="1" source="JxSoEKTKCqCzWXoLidXe-96" target="JxSoEKTKCqCzWXoLidXe-236" edge="1">
          <mxGeometry relative="1" as="geometry">
            <mxPoint x="-330" y="510" as="targetPoint" />
          </mxGeometry>
        </mxCell>
        <mxCell id="JxSoEKTKCqCzWXoLidXe-263" style="edgeStyle=none;rounded=0;orthogonalLoop=1;jettySize=auto;html=1;endArrow=oval;endFill=0;" parent="1" source="JxSoEKTKCqCzWXoLidXe-4" edge="1">
          <mxGeometry relative="1" as="geometry">
            <mxPoint x="-420" y="450" as="targetPoint" />
          </mxGeometry>
        </mxCell>
        <mxCell id="JxSoEKTKCqCzWXoLidXe-266" style="edgeStyle=none;rounded=0;orthogonalLoop=1;jettySize=auto;html=1;endArrow=oval;endFill=0;entryX=1.052;entryY=0.45;entryDx=0;entryDy=0;entryPerimeter=0;" parent="1" source="JxSoEKTKCqCzWXoLidXe-4" target="JxSoEKTKCqCzWXoLidXe-265" edge="1">
          <mxGeometry relative="1" as="geometry">
            <mxPoint x="-520" y="550" as="targetPoint" />
          </mxGeometry>
        </mxCell>
        <mxCell id="JxSoEKTKCqCzWXoLidXe-267" style="edgeStyle=none;rounded=0;orthogonalLoop=1;jettySize=auto;html=1;endArrow=oval;endFill=0;entryX=0.57;entryY=1.2;entryDx=0;entryDy=0;entryPerimeter=0;" parent="1" source="JxSoEKTKCqCzWXoLidXe-4" target="JxSoEKTKCqCzWXoLidXe-268" edge="1">
          <mxGeometry relative="1" as="geometry">
            <mxPoint x="-380" y="430" as="targetPoint" />
          </mxGeometry>
        </mxCell>
        <mxCell id="JxSoEKTKCqCzWXoLidXe-269" style="edgeStyle=none;rounded=0;orthogonalLoop=1;jettySize=auto;html=1;endArrow=oval;endFill=0;entryX=0.447;entryY=-0.175;entryDx=0;entryDy=0;entryPerimeter=0;" parent="1" source="JxSoEKTKCqCzWXoLidXe-4" target="JxSoEKTKCqCzWXoLidXe-270" edge="1">
          <mxGeometry relative="1" as="geometry">
            <mxPoint x="-440" y="590" as="targetPoint" />
          </mxGeometry>
        </mxCell>
        <mxCell id="JxSoEKTKCqCzWXoLidXe-272" style="edgeStyle=none;rounded=0;orthogonalLoop=1;jettySize=auto;html=1;endArrow=oval;endFill=0;" parent="1" source="JxSoEKTKCqCzWXoLidXe-4" edge="1">
          <mxGeometry relative="1" as="geometry">
            <mxPoint x="-540" y="470" as="targetPoint" />
          </mxGeometry>
        </mxCell>
        <mxCell id="JxSoEKTKCqCzWXoLidXe-4" value="ACEX Programadas" style="whiteSpace=wrap;html=1;" parent="1" vertex="1">
          <mxGeometry x="-490" y="510" width="120" height="60" as="geometry" />
        </mxCell>
        <mxCell id="JxSoEKTKCqCzWXoLidXe-5" value="Hace" style="rhombus;whiteSpace=wrap;html=1;" parent="1" vertex="1">
          <mxGeometry x="-745" y="180" width="110" height="80" as="geometry" />
        </mxCell>
        <mxCell id="JxSoEKTKCqCzWXoLidXe-215" style="edgeStyle=none;rounded=0;orthogonalLoop=1;jettySize=auto;html=1;entryX=1;entryY=0.5;entryDx=0;entryDy=0;endArrow=classic;endFill=1;" parent="1" source="JxSoEKTKCqCzWXoLidXe-11" target="JxSoEKTKCqCzWXoLidXe-212" edge="1">
          <mxGeometry relative="1" as="geometry" />
        </mxCell>
        <mxCell id="JxSoEKTKCqCzWXoLidXe-11" value="Grupo&lt;br&gt;" style="whiteSpace=wrap;html=1;" parent="1" vertex="1">
          <mxGeometry x="120" y="530" width="120" height="60" as="geometry" />
        </mxCell>
        <mxCell id="JxSoEKTKCqCzWXoLidXe-12" value="Compone&lt;br&gt;" style="rhombus;whiteSpace=wrap;html=1;" parent="1" vertex="1">
          <mxGeometry x="140" y="680" width="80" height="80" as="geometry" />
        </mxCell>
        <mxCell id="JxSoEKTKCqCzWXoLidXe-73" style="edgeStyle=orthogonalEdgeStyle;rounded=0;orthogonalLoop=1;jettySize=auto;html=1;endArrow=oval;endFill=0;" parent="1" source="JxSoEKTKCqCzWXoLidXe-13" edge="1">
          <mxGeometry relative="1" as="geometry">
            <mxPoint x="205" y="955" as="targetPoint" />
          </mxGeometry>
        </mxCell>
        <mxCell id="JxSoEKTKCqCzWXoLidXe-76" style="edgeStyle=orthogonalEdgeStyle;rounded=0;orthogonalLoop=1;jettySize=auto;html=1;endArrow=oval;endFill=0;exitX=0;exitY=1;exitDx=0;exitDy=0;entryX=0.438;entryY=-0.1;entryDx=0;entryDy=0;entryPerimeter=0;" parent="1" source="JxSoEKTKCqCzWXoLidXe-13" target="JxSoEKTKCqCzWXoLidXe-75" edge="1">
          <mxGeometry relative="1" as="geometry">
            <mxPoint x="145" y="945" as="targetPoint" />
          </mxGeometry>
        </mxCell>
        <mxCell id="JxSoEKTKCqCzWXoLidXe-13" value="Curso" style="whiteSpace=wrap;html=1;rotation=0;" parent="1" vertex="1">
          <mxGeometry x="130" y="865" width="120" height="60" as="geometry" />
        </mxCell>
        <mxCell id="JxSoEKTKCqCzWXoLidXe-15" value="" style="endArrow=classic;html=1;rounded=0;entryX=0.5;entryY=0;entryDx=0;entryDy=0;exitX=1;exitY=0.5;exitDx=0;exitDy=0;" parent="1" source="JxSoEKTKCqCzWXoLidXe-2" target="JxSoEKTKCqCzWXoLidXe-3" edge="1">
          <mxGeometry width="50" height="50" relative="1" as="geometry">
            <mxPoint x="-440" y="380" as="sourcePoint" />
            <mxPoint x="-390" y="330" as="targetPoint" />
            <Array as="points">
              <mxPoint x="-150" />
            </Array>
          </mxGeometry>
        </mxCell>
        <mxCell id="JxSoEKTKCqCzWXoLidXe-16" value="Pertenece" style="rhombus;whiteSpace=wrap;html=1;" parent="1" vertex="1">
          <mxGeometry x="-410" y="50" width="80" height="80" as="geometry" />
        </mxCell>
        <mxCell id="JxSoEKTKCqCzWXoLidXe-17" value="" style="endArrow=classic;html=1;rounded=0;entryX=0;entryY=0.5;entryDx=0;entryDy=0;exitX=1;exitY=0.5;exitDx=0;exitDy=0;" parent="1" source="JxSoEKTKCqCzWXoLidXe-1" target="JxSoEKTKCqCzWXoLidXe-16" edge="1">
          <mxGeometry width="50" height="50" relative="1" as="geometry">
            <mxPoint x="390" y="430" as="sourcePoint" />
            <mxPoint x="440" y="380" as="targetPoint" />
          </mxGeometry>
        </mxCell>
        <mxCell id="JxSoEKTKCqCzWXoLidXe-18" value="" style="endArrow=classic;html=1;rounded=0;entryX=0;entryY=0.5;entryDx=0;entryDy=0;exitX=1;exitY=0.5;exitDx=0;exitDy=0;" parent="1" source="JxSoEKTKCqCzWXoLidXe-16" target="JxSoEKTKCqCzWXoLidXe-3" edge="1">
          <mxGeometry width="50" height="50" relative="1" as="geometry">
            <mxPoint x="-440" y="380" as="sourcePoint" />
            <mxPoint x="-390" y="330" as="targetPoint" />
          </mxGeometry>
        </mxCell>
        <mxCell id="JxSoEKTKCqCzWXoLidXe-21" value="" style="endArrow=classic;html=1;rounded=0;exitX=0.5;exitY=1;exitDx=0;exitDy=0;entryX=0.5;entryY=0;entryDx=0;entryDy=0;" parent="1" source="JxSoEKTKCqCzWXoLidXe-5" target="JxSoEKTKCqCzWXoLidXe-96" edge="1">
          <mxGeometry width="50" height="50" relative="1" as="geometry">
            <mxPoint x="-390" y="320" as="sourcePoint" />
            <mxPoint x="-770" y="290" as="targetPoint" />
          </mxGeometry>
        </mxCell>
        <mxCell id="JxSoEKTKCqCzWXoLidXe-25" value="" style="endArrow=classic;html=1;rounded=0;entryX=0.5;entryY=0;entryDx=0;entryDy=0;exitX=0.5;exitY=1;exitDx=0;exitDy=0;" parent="1" source="JxSoEKTKCqCzWXoLidXe-11" target="JxSoEKTKCqCzWXoLidXe-12" edge="1">
          <mxGeometry width="50" height="50" relative="1" as="geometry">
            <mxPoint x="185" y="580" as="sourcePoint" />
            <mxPoint x="440" y="380" as="targetPoint" />
          </mxGeometry>
        </mxCell>
        <mxCell id="JxSoEKTKCqCzWXoLidXe-26" value="" style="endArrow=classic;html=1;rounded=0;exitX=0.5;exitY=1;exitDx=0;exitDy=0;entryX=0.5;entryY=0;entryDx=0;entryDy=0;" parent="1" source="JxSoEKTKCqCzWXoLidXe-12" target="JxSoEKTKCqCzWXoLidXe-13" edge="1">
          <mxGeometry width="50" height="50" relative="1" as="geometry">
            <mxPoint x="308" y="895" as="sourcePoint" />
            <mxPoint x="180" y="860" as="targetPoint" />
          </mxGeometry>
        </mxCell>
        <mxCell id="JxSoEKTKCqCzWXoLidXe-33" value="" style="endArrow=classic;html=1;rounded=0;entryX=0.5;entryY=0;entryDx=0;entryDy=0;exitX=0;exitY=1;exitDx=0;exitDy=0;" parent="1" source="JxSoEKTKCqCzWXoLidXe-1" target="JxSoEKTKCqCzWXoLidXe-5" edge="1">
          <mxGeometry width="50" height="50" relative="1" as="geometry">
            <mxPoint x="90" y="260" as="sourcePoint" />
            <mxPoint x="140" y="210" as="targetPoint" />
          </mxGeometry>
        </mxCell>
        <mxCell id="JxSoEKTKCqCzWXoLidXe-46" style="edgeStyle=orthogonalEdgeStyle;rounded=0;orthogonalLoop=1;jettySize=auto;html=1;endArrow=oval;endFill=1;" parent="1" edge="1">
          <mxGeometry relative="1" as="geometry">
            <mxPoint x="-555" y="39.99999999999997" as="targetPoint" />
            <mxPoint x="-570" y="60" as="sourcePoint" />
          </mxGeometry>
        </mxCell>
        <mxCell id="JxSoEKTKCqCzWXoLidXe-48" style="edgeStyle=orthogonalEdgeStyle;rounded=0;orthogonalLoop=1;jettySize=auto;html=1;endArrow=oval;endFill=0;exitX=1;exitY=0.5;exitDx=0;exitDy=0;" parent="1" source="JxSoEKTKCqCzWXoLidXe-1" edge="1">
          <mxGeometry relative="1" as="geometry">
            <mxPoint x="-535" y="49.99999999999997" as="targetPoint" />
            <Array as="points">
              <mxPoint x="-570" y="60" />
              <mxPoint x="-535" y="60" />
            </Array>
            <mxPoint x="-534.9473684210525" y="90.00000000000006" as="sourcePoint" />
          </mxGeometry>
        </mxCell>
        <mxCell id="JxSoEKTKCqCzWXoLidXe-47" value="DNI" style="text;html=1;align=center;verticalAlign=middle;resizable=0;points=[];autosize=1;strokeColor=none;fillColor=none;" parent="1" vertex="1">
          <mxGeometry x="-575" y="9.999999999999943" width="40" height="20" as="geometry" />
        </mxCell>
        <mxCell id="JxSoEKTKCqCzWXoLidXe-49" value="Nombre" style="text;html=1;align=center;verticalAlign=middle;resizable=0;points=[];autosize=1;strokeColor=none;fillColor=none;" parent="1" vertex="1">
          <mxGeometry x="-545" y="29.999999999999943" width="60" height="20" as="geometry" />
        </mxCell>
        <mxCell id="JxSoEKTKCqCzWXoLidXe-50" style="edgeStyle=orthogonalEdgeStyle;rounded=0;orthogonalLoop=1;jettySize=auto;html=1;endArrow=oval;endFill=0;entryX=0.449;entryY=1.082;entryDx=0;entryDy=0;entryPerimeter=0;" parent="1" target="JxSoEKTKCqCzWXoLidXe-51" edge="1">
          <mxGeometry relative="1" as="geometry">
            <mxPoint x="-585" y="49.99999999999997" as="targetPoint" />
            <mxPoint x="-598" y="60" as="sourcePoint" />
            <Array as="points">
              <mxPoint x="-585" y="60" />
              <mxPoint x="-598" y="60" />
            </Array>
          </mxGeometry>
        </mxCell>
        <mxCell id="JxSoEKTKCqCzWXoLidXe-51" value="Apellidos" style="text;html=1;align=center;verticalAlign=middle;resizable=0;points=[];autosize=1;strokeColor=none;fillColor=none;" parent="1" vertex="1">
          <mxGeometry x="-662.5" y="19.999999999999943" width="60" height="20" as="geometry" />
        </mxCell>
        <mxCell id="JxSoEKTKCqCzWXoLidXe-52" style="edgeStyle=orthogonalEdgeStyle;rounded=0;orthogonalLoop=1;jettySize=auto;html=1;endArrow=oval;endFill=1;" parent="1" edge="1">
          <mxGeometry relative="1" as="geometry">
            <mxPoint x="-690" y="10" as="targetPoint" />
            <mxPoint x="-690" y="60" as="sourcePoint" />
          </mxGeometry>
        </mxCell>
        <mxCell id="JxSoEKTKCqCzWXoLidXe-53" value="id" style="text;html=1;align=center;verticalAlign=middle;resizable=0;points=[];autosize=1;strokeColor=none;fillColor=none;" parent="1" vertex="1">
          <mxGeometry x="-700" y="-20" width="20" height="20" as="geometry" />
        </mxCell>
        <mxCell id="JxSoEKTKCqCzWXoLidXe-55" value="Correo" style="text;html=1;align=center;verticalAlign=middle;resizable=0;points=[];autosize=1;strokeColor=none;fillColor=none;" parent="1" vertex="1">
          <mxGeometry x="-657.5" y="150" width="50" height="20" as="geometry" />
        </mxCell>
        <mxCell id="JxSoEKTKCqCzWXoLidXe-57" value="SuperUsuario" style="text;html=1;align=center;verticalAlign=middle;resizable=0;points=[];autosize=1;strokeColor=none;fillColor=none;" parent="1" vertex="1">
          <mxGeometry x="-870" y="-30" width="90" height="20" as="geometry" />
        </mxCell>
        <mxCell id="JxSoEKTKCqCzWXoLidXe-59" value="Administrador" style="text;html=1;align=center;verticalAlign=middle;resizable=0;points=[];autosize=1;strokeColor=none;fillColor=none;" parent="1" vertex="1">
          <mxGeometry x="-870" y="-10" width="90" height="20" as="geometry" />
        </mxCell>
        <mxCell id="JxSoEKTKCqCzWXoLidXe-60" value="EquipoDirectivo" style="text;html=1;align=center;verticalAlign=middle;resizable=0;points=[];autosize=1;strokeColor=none;fillColor=none;" parent="1" vertex="1">
          <mxGeometry x="-870" y="10" width="100" height="20" as="geometry" />
        </mxCell>
        <mxCell id="JxSoEKTKCqCzWXoLidXe-61" value="Profesor" style="text;html=1;align=center;verticalAlign=middle;resizable=0;points=[];autosize=1;strokeColor=none;fillColor=none;" parent="1" vertex="1">
          <mxGeometry x="-870" y="30" width="60" height="20" as="geometry" />
        </mxCell>
        <mxCell id="JxSoEKTKCqCzWXoLidXe-63" value="Activo" style="text;html=1;align=center;verticalAlign=middle;resizable=0;points=[];autosize=1;strokeColor=none;fillColor=none;" parent="1" vertex="1">
          <mxGeometry x="-685" y="-10" width="50" height="20" as="geometry" />
        </mxCell>
        <mxCell id="JxSoEKTKCqCzWXoLidXe-64" value="id" style="text;html=1;align=center;verticalAlign=middle;resizable=0;points=[];autosize=1;strokeColor=none;fillColor=none;" parent="1" vertex="1">
          <mxGeometry x="-130" width="20" height="20" as="geometry" />
        </mxCell>
        <mxCell id="JxSoEKTKCqCzWXoLidXe-66" value="jefe" style="text;html=1;align=center;verticalAlign=middle;resizable=0;points=[];autosize=1;strokeColor=none;fillColor=none;" parent="1" vertex="1">
          <mxGeometry x="-165" y="150" width="30" height="20" as="geometry" />
        </mxCell>
        <mxCell id="JxSoEKTKCqCzWXoLidXe-72" value="Nombre" style="text;html=1;align=center;verticalAlign=middle;resizable=0;points=[];autosize=1;strokeColor=none;fillColor=none;" parent="1" vertex="1">
          <mxGeometry x="-120" y="150" width="60" height="20" as="geometry" />
        </mxCell>
        <mxCell id="JxSoEKTKCqCzWXoLidXe-82" style="edgeStyle=orthogonalEdgeStyle;rounded=0;orthogonalLoop=1;jettySize=auto;html=1;endArrow=ERmany;endFill=0;" parent="1" source="JxSoEKTKCqCzWXoLidXe-74" edge="1">
          <mxGeometry relative="1" as="geometry">
            <mxPoint x="205" y="995" as="targetPoint" />
          </mxGeometry>
        </mxCell>
        <mxCell id="JxSoEKTKCqCzWXoLidXe-74" value="Etapa" style="text;html=1;align=center;verticalAlign=middle;resizable=0;points=[];autosize=1;strokeColor=none;fillColor=none;" parent="1" vertex="1">
          <mxGeometry x="180" y="955" width="50" height="20" as="geometry" />
        </mxCell>
        <mxCell id="JxSoEKTKCqCzWXoLidXe-75" value="descripcion" style="text;html=1;align=center;verticalAlign=middle;resizable=0;points=[];autosize=1;strokeColor=none;fillColor=none;" parent="1" vertex="1">
          <mxGeometry x="110" y="955" width="80" height="20" as="geometry" />
        </mxCell>
        <mxCell id="JxSoEKTKCqCzWXoLidXe-79" style="edgeStyle=orthogonalEdgeStyle;rounded=0;orthogonalLoop=1;jettySize=auto;html=1;endArrow=oval;endFill=1;" parent="1" edge="1">
          <mxGeometry relative="1" as="geometry">
            <mxPoint x="245" y="955" as="targetPoint" />
            <mxPoint x="245" y="925" as="sourcePoint" />
          </mxGeometry>
        </mxCell>
        <mxCell id="JxSoEKTKCqCzWXoLidXe-81" value="ID" style="text;html=1;align=center;verticalAlign=middle;resizable=0;points=[];autosize=1;strokeColor=none;fillColor=none;" parent="1" vertex="1">
          <mxGeometry x="230" y="955" width="30" height="20" as="geometry" />
        </mxCell>
        <mxCell id="JxSoEKTKCqCzWXoLidXe-83" value="ESO,Bachillerato,FPGS,FPGM,FPB,FPCE" style="text;html=1;align=center;verticalAlign=middle;resizable=0;points=[];autosize=1;strokeColor=none;fillColor=none;" parent="1" vertex="1">
          <mxGeometry x="70" y="995" width="240" height="20" as="geometry" />
        </mxCell>
        <mxCell id="JxSoEKTKCqCzWXoLidXe-84" value="Perfil" style="text;html=1;align=center;verticalAlign=middle;resizable=0;points=[];autosize=1;strokeColor=none;fillColor=none;" parent="1" vertex="1">
          <mxGeometry x="-780" y="-20" width="40" height="20" as="geometry" />
        </mxCell>
        <mxCell id="JxSoEKTKCqCzWXoLidXe-85" value="numeroAlumnos" style="text;html=1;align=center;verticalAlign=middle;resizable=0;points=[];autosize=1;strokeColor=none;fillColor=none;" parent="1" vertex="1">
          <mxGeometry x="210" y="490" width="100" height="20" as="geometry" />
        </mxCell>
        <mxCell id="JxSoEKTKCqCzWXoLidXe-86" value="Curso" style="text;html=1;align=center;verticalAlign=middle;resizable=0;points=[];autosize=1;strokeColor=none;fillColor=none;" parent="1" vertex="1">
          <mxGeometry x="160" y="490" width="50" height="20" as="geometry" />
        </mxCell>
        <mxCell id="JxSoEKTKCqCzWXoLidXe-87" value="CodigoGrupo" style="text;html=1;align=center;verticalAlign=middle;resizable=0;points=[];autosize=1;strokeColor=none;fillColor=none;" parent="1" vertex="1">
          <mxGeometry x="75" y="480" width="90" height="20" as="geometry" />
        </mxCell>
        <mxCell id="JxSoEKTKCqCzWXoLidXe-90" style="edgeStyle=orthogonalEdgeStyle;rounded=0;orthogonalLoop=1;jettySize=auto;html=1;endArrow=oval;endFill=1;exitX=0.534;exitY=-0.011;exitDx=0;exitDy=0;entryX=0.419;entryY=1.044;entryDx=0;entryDy=0;entryPerimeter=0;exitPerimeter=0;" parent="1" source="JxSoEKTKCqCzWXoLidXe-11" target="JxSoEKTKCqCzWXoLidXe-86" edge="1">
          <mxGeometry relative="1" as="geometry">
            <mxPoint x="179.53999999999996" y="488" as="targetPoint" />
            <mxPoint x="179.5" y="460" as="sourcePoint" />
          </mxGeometry>
        </mxCell>
        <mxCell id="JxSoEKTKCqCzWXoLidXe-91" style="edgeStyle=orthogonalEdgeStyle;rounded=0;orthogonalLoop=1;jettySize=auto;html=1;endArrow=oval;endFill=0;exitX=0.94;exitY=0.023;exitDx=0;exitDy=0;entryX=0.222;entryY=1.121;entryDx=0;entryDy=0;entryPerimeter=0;exitPerimeter=0;" parent="1" source="JxSoEKTKCqCzWXoLidXe-11" target="JxSoEKTKCqCzWXoLidXe-85" edge="1">
          <mxGeometry relative="1" as="geometry">
            <mxPoint x="240.03999999999996" y="488" as="targetPoint" />
            <mxPoint x="240" y="460" as="sourcePoint" />
          </mxGeometry>
        </mxCell>
        <mxCell id="JxSoEKTKCqCzWXoLidXe-92" style="edgeStyle=orthogonalEdgeStyle;rounded=0;orthogonalLoop=1;jettySize=auto;html=1;endArrow=oval;endFill=1;exitX=0.213;exitY=0.015;exitDx=0;exitDy=0;entryX=0.773;entryY=1.185;entryDx=0;entryDy=0;entryPerimeter=0;exitPerimeter=0;" parent="1" source="JxSoEKTKCqCzWXoLidXe-11" target="JxSoEKTKCqCzWXoLidXe-87" edge="1">
          <mxGeometry relative="1" as="geometry">
            <mxPoint x="140" y="470" as="targetPoint" />
            <mxPoint x="140" y="460" as="sourcePoint" />
          </mxGeometry>
        </mxCell>
        <mxCell id="JxSoEKTKCqCzWXoLidXe-99" style="rounded=0;orthogonalLoop=1;jettySize=auto;html=1;endArrow=classic;endFill=1;" parent="1" target="JxSoEKTKCqCzWXoLidXe-98" edge="1">
          <mxGeometry relative="1" as="geometry">
            <mxPoint x="-671" y="370" as="sourcePoint" />
          </mxGeometry>
        </mxCell>
        <mxCell id="JxSoEKTKCqCzWXoLidXe-149" style="edgeStyle=none;rounded=0;orthogonalLoop=1;jettySize=auto;html=1;endArrow=oval;endFill=1;entryX=1;entryY=0.5;entryDx=0;entryDy=0;entryPerimeter=0;" parent="1" source="JxSoEKTKCqCzWXoLidXe-96" target="JxSoEKTKCqCzWXoLidXe-150" edge="1">
          <mxGeometry relative="1" as="geometry">
            <mxPoint x="-789.9999999999998" y="340" as="targetPoint" />
          </mxGeometry>
        </mxCell>
        <mxCell id="JxSoEKTKCqCzWXoLidXe-151" style="edgeStyle=none;rounded=0;orthogonalLoop=1;jettySize=auto;html=1;endArrow=oval;endFill=0;" parent="1" source="JxSoEKTKCqCzWXoLidXe-96" target="JxSoEKTKCqCzWXoLidXe-152" edge="1">
          <mxGeometry relative="1" as="geometry">
            <mxPoint x="-779.9999999999998" y="310" as="targetPoint" />
          </mxGeometry>
        </mxCell>
        <mxCell id="JxSoEKTKCqCzWXoLidXe-153" style="edgeStyle=none;rounded=0;orthogonalLoop=1;jettySize=auto;html=1;endArrow=oval;endFill=0;" parent="1" source="JxSoEKTKCqCzWXoLidXe-96" edge="1">
          <mxGeometry relative="1" as="geometry">
            <mxPoint x="-779.9999999999998" y="360" as="targetPoint" />
          </mxGeometry>
        </mxCell>
        <mxCell id="JxSoEKTKCqCzWXoLidXe-155" style="edgeStyle=none;rounded=0;orthogonalLoop=1;jettySize=auto;html=1;endArrow=oval;endFill=0;" parent="1" source="JxSoEKTKCqCzWXoLidXe-96" edge="1">
          <mxGeometry relative="1" as="geometry">
            <mxPoint x="-770" y="390" as="targetPoint" />
          </mxGeometry>
        </mxCell>
        <mxCell id="JxSoEKTKCqCzWXoLidXe-157" style="edgeStyle=none;rounded=0;orthogonalLoop=1;jettySize=auto;html=1;endArrow=oval;endFill=0;entryX=0.62;entryY=1.098;entryDx=0;entryDy=0;entryPerimeter=0;" parent="1" source="JxSoEKTKCqCzWXoLidXe-96" target="JxSoEKTKCqCzWXoLidXe-158" edge="1">
          <mxGeometry relative="1" as="geometry">
            <mxPoint x="-750" y="290.0000000000002" as="targetPoint" />
          </mxGeometry>
        </mxCell>
        <mxCell id="JxSoEKTKCqCzWXoLidXe-160" style="edgeStyle=none;rounded=0;orthogonalLoop=1;jettySize=auto;html=1;entryX=0.75;entryY=0;entryDx=0;entryDy=0;entryPerimeter=0;endArrow=oval;endFill=0;" parent="1" source="JxSoEKTKCqCzWXoLidXe-96" target="JxSoEKTKCqCzWXoLidXe-159" edge="1">
          <mxGeometry relative="1" as="geometry" />
        </mxCell>
        <mxCell id="JxSoEKTKCqCzWXoLidXe-161" style="edgeStyle=none;rounded=0;orthogonalLoop=1;jettySize=auto;html=1;endArrow=oval;endFill=0;" parent="1" source="JxSoEKTKCqCzWXoLidXe-96" edge="1">
          <mxGeometry relative="1" as="geometry">
            <mxPoint x="-640" y="400" as="targetPoint" />
          </mxGeometry>
        </mxCell>
        <mxCell id="JxSoEKTKCqCzWXoLidXe-164" style="edgeStyle=none;rounded=0;orthogonalLoop=1;jettySize=auto;html=1;endArrow=oval;endFill=0;" parent="1" source="JxSoEKTKCqCzWXoLidXe-96" edge="1">
          <mxGeometry relative="1" as="geometry">
            <mxPoint x="-600" y="370" as="targetPoint" />
          </mxGeometry>
        </mxCell>
        <mxCell id="JxSoEKTKCqCzWXoLidXe-166" style="edgeStyle=none;rounded=0;orthogonalLoop=1;jettySize=auto;html=1;endArrow=oval;endFill=0;" parent="1" source="JxSoEKTKCqCzWXoLidXe-96" edge="1">
          <mxGeometry relative="1" as="geometry">
            <mxPoint x="-600" y="340.0000000000002" as="targetPoint" />
          </mxGeometry>
        </mxCell>
        <mxCell id="JxSoEKTKCqCzWXoLidXe-168" style="edgeStyle=none;rounded=0;orthogonalLoop=1;jettySize=auto;html=1;endArrow=oval;endFill=0;" parent="1" source="JxSoEKTKCqCzWXoLidXe-96" edge="1">
          <mxGeometry relative="1" as="geometry">
            <mxPoint x="-610" y="320.0000000000002" as="targetPoint" />
          </mxGeometry>
        </mxCell>
        <mxCell id="JxSoEKTKCqCzWXoLidXe-175" style="edgeStyle=none;rounded=0;orthogonalLoop=1;jettySize=auto;html=1;entryX=0.085;entryY=1.075;entryDx=0;entryDy=0;entryPerimeter=0;endArrow=oval;endFill=0;" parent="1" source="JxSoEKTKCqCzWXoLidXe-96" target="JxSoEKTKCqCzWXoLidXe-174" edge="1">
          <mxGeometry relative="1" as="geometry" />
        </mxCell>
        <mxCell id="JxSoEKTKCqCzWXoLidXe-188" style="edgeStyle=none;rounded=0;orthogonalLoop=1;jettySize=auto;html=1;entryX=1;entryY=0.5;entryDx=0;entryDy=0;endArrow=classic;endFill=1;" parent="1" source="JxSoEKTKCqCzWXoLidXe-96" target="JxSoEKTKCqCzWXoLidXe-186" edge="1">
          <mxGeometry relative="1" as="geometry" />
        </mxCell>
        <mxCell id="JxSoEKTKCqCzWXoLidXe-274" style="edgeStyle=none;rounded=0;orthogonalLoop=1;jettySize=auto;html=1;entryX=-0.045;entryY=0.2;entryDx=0;entryDy=0;entryPerimeter=0;endArrow=oval;endFill=0;" parent="1" source="JxSoEKTKCqCzWXoLidXe-96" target="JxSoEKTKCqCzWXoLidXe-273" edge="1">
          <mxGeometry relative="1" as="geometry" />
        </mxCell>
        <mxCell id="Wr1tdi9X-l9FbxtCBq4g-46" style="edgeStyle=none;rounded=0;orthogonalLoop=1;jettySize=auto;html=1;entryX=1;entryY=0.5;entryDx=0;entryDy=0;endArrow=classic;endFill=1;" parent="1" source="JxSoEKTKCqCzWXoLidXe-96" target="Wr1tdi9X-l9FbxtCBq4g-45" edge="1">
          <mxGeometry relative="1" as="geometry" />
        </mxCell>
        <mxCell id="JxSoEKTKCqCzWXoLidXe-96" value="Solicitud" style="whiteSpace=wrap;html=1;" parent="1" vertex="1">
          <mxGeometry x="-750" y="310" width="120" height="60" as="geometry" />
        </mxCell>
        <mxCell id="JxSoEKTKCqCzWXoLidXe-102" style="rounded=0;orthogonalLoop=1;jettySize=auto;html=1;entryX=0;entryY=0.667;entryDx=0;entryDy=0;endArrow=classic;endFill=1;entryPerimeter=0;" parent="1" source="JxSoEKTKCqCzWXoLidXe-98" target="JxSoEKTKCqCzWXoLidXe-4" edge="1">
          <mxGeometry relative="1" as="geometry" />
        </mxCell>
        <mxCell id="JxSoEKTKCqCzWXoLidXe-98" value="Procede" style="rhombus;whiteSpace=wrap;html=1;" parent="1" vertex="1">
          <mxGeometry x="-690" y="510" width="80" height="80" as="geometry" />
        </mxCell>
        <mxCell id="JxSoEKTKCqCzWXoLidXe-108" style="edgeStyle=none;rounded=0;orthogonalLoop=1;jettySize=auto;html=1;endArrow=oval;endFill=0;" parent="1" source="JxSoEKTKCqCzWXoLidXe-103" edge="1">
          <mxGeometry relative="1" as="geometry">
            <mxPoint x="-942.5" y="620" as="targetPoint" />
          </mxGeometry>
        </mxCell>
        <mxCell id="JxSoEKTKCqCzWXoLidXe-110" style="edgeStyle=none;rounded=0;orthogonalLoop=1;jettySize=auto;html=1;endArrow=oval;endFill=1;" parent="1" source="JxSoEKTKCqCzWXoLidXe-103" edge="1">
          <mxGeometry relative="1" as="geometry">
            <mxPoint x="-1032.5" y="690" as="targetPoint" />
          </mxGeometry>
        </mxCell>
        <mxCell id="JxSoEKTKCqCzWXoLidXe-103" value="Medio de transporte" style="whiteSpace=wrap;html=1;" parent="1" vertex="1">
          <mxGeometry x="-1007.5" y="660" width="120" height="60" as="geometry" />
        </mxCell>
        <mxCell id="JxSoEKTKCqCzWXoLidXe-107" style="edgeStyle=none;rounded=0;orthogonalLoop=1;jettySize=auto;html=1;endArrow=classic;endFill=1;" parent="1" source="JxSoEKTKCqCzWXoLidXe-104" edge="1">
          <mxGeometry relative="1" as="geometry">
            <mxPoint x="-570" y="680" as="targetPoint" />
          </mxGeometry>
        </mxCell>
        <mxCell id="JxSoEKTKCqCzWXoLidXe-104" value="Usa" style="rhombus;whiteSpace=wrap;html=1;" parent="1" vertex="1">
          <mxGeometry x="-505" y="640" width="80" height="80" as="geometry" />
        </mxCell>
        <mxCell id="JxSoEKTKCqCzWXoLidXe-109" value="Descripcion" style="text;html=1;align=center;verticalAlign=middle;resizable=0;points=[];autosize=1;strokeColor=none;fillColor=none;" parent="1" vertex="1">
          <mxGeometry x="-982.5" y="600" width="80" height="20" as="geometry" />
        </mxCell>
        <mxCell id="JxSoEKTKCqCzWXoLidXe-111" value="ID" style="text;html=1;align=center;verticalAlign=middle;resizable=0;points=[];autosize=1;strokeColor=none;fillColor=none;" parent="1" vertex="1">
          <mxGeometry x="-1077.5" y="680" width="30" height="20" as="geometry" />
        </mxCell>
        <mxCell id="JxSoEKTKCqCzWXoLidXe-255" style="edgeStyle=none;rounded=0;orthogonalLoop=1;jettySize=auto;html=1;endArrow=classic;endFill=1;entryX=0;entryY=0.5;entryDx=0;entryDy=0;" parent="1" source="JxSoEKTKCqCzWXoLidXe-112" target="JxSoEKTKCqCzWXoLidXe-249" edge="1">
          <mxGeometry relative="1" as="geometry">
            <mxPoint x="-280" y="220" as="targetPoint" />
          </mxGeometry>
        </mxCell>
        <mxCell id="JxSoEKTKCqCzWXoLidXe-112" value="Requiere" style="rhombus;whiteSpace=wrap;html=1;" parent="1" vertex="1">
          <mxGeometry x="-400" y="180" width="80" height="80" as="geometry" />
        </mxCell>
        <mxCell id="JxSoEKTKCqCzWXoLidXe-140" style="edgeStyle=none;rounded=0;orthogonalLoop=1;jettySize=auto;html=1;entryX=0.667;entryY=0;entryDx=0;entryDy=0;entryPerimeter=0;endArrow=oval;endFill=1;exitX=0.175;exitY=1.017;exitDx=0;exitDy=0;exitPerimeter=0;" parent="1" source="JxSoEKTKCqCzWXoLidXe-113" target="JxSoEKTKCqCzWXoLidXe-137" edge="1">
          <mxGeometry relative="1" as="geometry" />
        </mxCell>
        <mxCell id="JxSoEKTKCqCzWXoLidXe-141" style="edgeStyle=none;rounded=0;orthogonalLoop=1;jettySize=auto;html=1;entryX=0.488;entryY=-0.025;entryDx=0;entryDy=0;entryPerimeter=0;endArrow=oval;endFill=0;exitX=0.675;exitY=1;exitDx=0;exitDy=0;exitPerimeter=0;" parent="1" source="JxSoEKTKCqCzWXoLidXe-113" target="JxSoEKTKCqCzWXoLidXe-138" edge="1">
          <mxGeometry relative="1" as="geometry" />
        </mxCell>
        <mxCell id="JxSoEKTKCqCzWXoLidXe-142" style="edgeStyle=none;rounded=0;orthogonalLoop=1;jettySize=auto;html=1;endArrow=oval;endFill=0;" parent="1" source="JxSoEKTKCqCzWXoLidXe-113" edge="1">
          <mxGeometry relative="1" as="geometry">
            <mxPoint x="150" y="160" as="targetPoint" />
          </mxGeometry>
        </mxCell>
        <mxCell id="JxSoEKTKCqCzWXoLidXe-143" style="edgeStyle=none;rounded=0;orthogonalLoop=1;jettySize=auto;html=1;endArrow=oval;endFill=0;" parent="1" source="JxSoEKTKCqCzWXoLidXe-113" edge="1">
          <mxGeometry relative="1" as="geometry">
            <mxPoint x="50" y="160" as="targetPoint" />
          </mxGeometry>
        </mxCell>
        <mxCell id="JxSoEKTKCqCzWXoLidXe-113" value="Alojamiento" style="whiteSpace=wrap;html=1;" parent="1" vertex="1">
          <mxGeometry x="20" y="180" width="120" height="60" as="geometry" />
        </mxCell>
        <mxCell id="JxSoEKTKCqCzWXoLidXe-118" style="edgeStyle=none;rounded=0;orthogonalLoop=1;jettySize=auto;html=1;endArrow=block;endFill=1;" parent="1" source="JxSoEKTKCqCzWXoLidXe-116" edge="1">
          <mxGeometry relative="1" as="geometry">
            <mxPoint x="-700" y="370" as="targetPoint" />
            <Array as="points">
              <mxPoint x="-1160" y="560" />
              <mxPoint x="-700" y="560" />
            </Array>
          </mxGeometry>
        </mxCell>
        <mxCell id="JxSoEKTKCqCzWXoLidXe-116" value="Participa" style="rhombus;whiteSpace=wrap;html=1;" parent="1" vertex="1">
          <mxGeometry x="-1200" y="865" width="80" height="80" as="geometry" />
        </mxCell>
        <mxCell id="JxSoEKTKCqCzWXoLidXe-133" style="edgeStyle=none;rounded=0;orthogonalLoop=1;jettySize=auto;html=1;entryX=0.494;entryY=-0.075;entryDx=0;entryDy=0;entryPerimeter=0;endArrow=oval;endFill=0;exitX=0.824;exitY=0.988;exitDx=0;exitDy=0;exitPerimeter=0;" parent="1" source="JxSoEKTKCqCzWXoLidXe-119" target="JxSoEKTKCqCzWXoLidXe-132" edge="1">
          <mxGeometry relative="1" as="geometry" />
        </mxCell>
        <mxCell id="JxSoEKTKCqCzWXoLidXe-134" style="edgeStyle=none;rounded=0;orthogonalLoop=1;jettySize=auto;html=1;entryX=0.683;entryY=0.075;entryDx=0;entryDy=0;entryPerimeter=0;endArrow=oval;endFill=1;exitX=0.205;exitY=0.988;exitDx=0;exitDy=0;exitPerimeter=0;" parent="1" source="JxSoEKTKCqCzWXoLidXe-119" target="JxSoEKTKCqCzWXoLidXe-130" edge="1">
          <mxGeometry relative="1" as="geometry" />
        </mxCell>
        <mxCell id="JxSoEKTKCqCzWXoLidXe-119" value="Fotos" style="whiteSpace=wrap;html=1;" parent="1" vertex="1">
          <mxGeometry x="150" y="300" width="105" height="40" as="geometry" />
        </mxCell>
        <mxCell id="JxSoEKTKCqCzWXoLidXe-248" style="edgeStyle=none;rounded=0;orthogonalLoop=1;jettySize=auto;html=1;endArrow=classic;endFill=1;" parent="1" source="JxSoEKTKCqCzWXoLidXe-120" target="JxSoEKTKCqCzWXoLidXe-242" edge="1">
          <mxGeometry relative="1" as="geometry" />
        </mxCell>
        <mxCell id="JxSoEKTKCqCzWXoLidXe-120" value="Tiene" style="rhombus;whiteSpace=wrap;html=1;" parent="1" vertex="1">
          <mxGeometry x="-290" y="300" width="70" height="50" as="geometry" />
        </mxCell>
        <mxCell id="JxSoEKTKCqCzWXoLidXe-130" value="Url" style="text;html=1;align=center;verticalAlign=middle;resizable=0;points=[];autosize=1;strokeColor=none;fillColor=none;" parent="1" vertex="1">
          <mxGeometry x="150" y="360" width="30" height="20" as="geometry" />
        </mxCell>
        <mxCell id="JxSoEKTKCqCzWXoLidXe-132" value="Descripcion" style="text;html=1;align=center;verticalAlign=middle;resizable=0;points=[];autosize=1;strokeColor=none;fillColor=none;" parent="1" vertex="1">
          <mxGeometry x="200" y="360" width="80" height="20" as="geometry" />
        </mxCell>
        <mxCell id="JxSoEKTKCqCzWXoLidXe-135" value="InicioEstancia" style="text;html=1;align=center;verticalAlign=middle;resizable=0;points=[];autosize=1;strokeColor=none;fillColor=none;" parent="1" vertex="1">
          <mxGeometry y="130" width="90" height="20" as="geometry" />
        </mxCell>
        <mxCell id="JxSoEKTKCqCzWXoLidXe-136" value="FinalEstancia" style="text;html=1;align=center;verticalAlign=middle;resizable=0;points=[];autosize=1;strokeColor=none;fillColor=none;" parent="1" vertex="1">
          <mxGeometry x="100" y="130" width="90" height="20" as="geometry" />
        </mxCell>
        <mxCell id="JxSoEKTKCqCzWXoLidXe-137" value="ID" style="text;html=1;align=center;verticalAlign=middle;resizable=0;points=[];autosize=1;strokeColor=none;fillColor=none;" parent="1" vertex="1">
          <mxGeometry x="20" y="260" width="30" height="20" as="geometry" />
        </mxCell>
        <mxCell id="JxSoEKTKCqCzWXoLidXe-138" value="Descripcion" style="text;html=1;align=center;verticalAlign=middle;resizable=0;points=[];autosize=1;strokeColor=none;fillColor=none;" parent="1" vertex="1">
          <mxGeometry x="60" y="260" width="80" height="20" as="geometry" />
        </mxCell>
        <mxCell id="JxSoEKTKCqCzWXoLidXe-150" value="Solicitante" style="text;html=1;align=center;verticalAlign=middle;resizable=0;points=[];autosize=1;strokeColor=none;fillColor=none;" parent="1" vertex="1">
          <mxGeometry x="-835" y="285" width="70" height="20" as="geometry" />
        </mxCell>
        <mxCell id="JxSoEKTKCqCzWXoLidXe-152" value="Departamento" style="text;html=1;align=center;verticalAlign=middle;resizable=0;points=[];autosize=1;strokeColor=none;fillColor=none;" parent="1" vertex="1">
          <mxGeometry x="-670" y="280" width="90" height="20" as="geometry" />
        </mxCell>
        <mxCell id="JxSoEKTKCqCzWXoLidXe-154" value="Titulo Actividad" style="text;html=1;align=center;verticalAlign=middle;resizable=0;points=[];autosize=1;strokeColor=none;fillColor=none;" parent="1" vertex="1">
          <mxGeometry x="-875" y="360" width="100" height="20" as="geometry" />
        </mxCell>
        <mxCell id="JxSoEKTKCqCzWXoLidXe-156" value="Prevista" style="text;html=1;align=center;verticalAlign=middle;resizable=0;points=[];autosize=1;strokeColor=none;fillColor=none;" parent="1" vertex="1">
          <mxGeometry x="-830" y="380" width="60" height="20" as="geometry" />
        </mxCell>
        <mxCell id="JxSoEKTKCqCzWXoLidXe-158" value="Medio de transporte" style="text;html=1;align=center;verticalAlign=middle;resizable=0;points=[];autosize=1;strokeColor=none;fillColor=none;" parent="1" vertex="1">
          <mxGeometry x="-842.5" y="260" width="120" height="20" as="geometry" />
        </mxCell>
        <mxCell id="JxSoEKTKCqCzWXoLidXe-159" value="Fecha y hora inicio actividad" style="text;html=1;align=center;verticalAlign=middle;resizable=0;points=[];autosize=1;strokeColor=none;fillColor=none;" parent="1" vertex="1">
          <mxGeometry x="-885" y="400" width="170" height="20" as="geometry" />
        </mxCell>
        <mxCell id="JxSoEKTKCqCzWXoLidXe-163" value="Fecha y hora de fin de actividad" style="text;html=1;align=center;verticalAlign=middle;resizable=0;points=[];autosize=1;strokeColor=none;fillColor=none;" parent="1" vertex="1">
          <mxGeometry x="-670" y="400" width="190" height="20" as="geometry" />
        </mxCell>
        <mxCell id="JxSoEKTKCqCzWXoLidXe-165" value="Grupo o curso" style="text;html=1;align=center;verticalAlign=middle;resizable=0;points=[];autosize=1;strokeColor=none;fillColor=none;" parent="1" vertex="1">
          <mxGeometry x="-625" y="370" width="90" height="20" as="geometry" />
        </mxCell>
        <mxCell id="JxSoEKTKCqCzWXoLidXe-167" value="Numero alumnos" style="text;html=1;align=center;verticalAlign=middle;resizable=0;points=[];autosize=1;strokeColor=none;fillColor=none;" parent="1" vertex="1">
          <mxGeometry x="-600" y="330" width="110" height="20" as="geometry" />
        </mxCell>
        <mxCell id="JxSoEKTKCqCzWXoLidXe-169" value="Alojamiento" style="text;html=1;align=center;verticalAlign=middle;resizable=0;points=[];autosize=1;strokeColor=none;fillColor=none;" parent="1" vertex="1">
          <mxGeometry x="-610" y="310" width="80" height="20" as="geometry" />
        </mxCell>
        <mxCell id="JxSoEKTKCqCzWXoLidXe-174" value="Comentarios adicionales" style="text;html=1;align=center;verticalAlign=middle;resizable=0;points=[];autosize=1;strokeColor=none;fillColor=none;" parent="1" vertex="1">
          <mxGeometry x="-560" y="265" width="150" height="20" as="geometry" />
        </mxCell>
        <mxCell id="JxSoEKTKCqCzWXoLidXe-181" style="edgeStyle=none;rounded=0;orthogonalLoop=1;jettySize=auto;html=1;endArrow=oval;endFill=1;" parent="1" source="JxSoEKTKCqCzWXoLidXe-177" edge="1">
          <mxGeometry relative="1" as="geometry">
            <mxPoint x="-1040" y="210" as="targetPoint" />
          </mxGeometry>
        </mxCell>
        <mxCell id="JxSoEKTKCqCzWXoLidXe-177" value="Profesores participantes" style="whiteSpace=wrap;html=1;" parent="1" vertex="1">
          <mxGeometry x="-1100" y="250" width="120" height="60" as="geometry" />
        </mxCell>
        <mxCell id="JxSoEKTKCqCzWXoLidXe-179" value="Profesores responsables" style="whiteSpace=wrap;html=1;" parent="1" vertex="1">
          <mxGeometry x="-1100" y="320" width="120" height="60" as="geometry" />
        </mxCell>
        <mxCell id="JxSoEKTKCqCzWXoLidXe-182" value="idLista" style="text;html=1;align=center;verticalAlign=middle;resizable=0;points=[];autosize=1;strokeColor=none;fillColor=none;" parent="1" vertex="1">
          <mxGeometry x="-1057.5" y="190" width="50" height="20" as="geometry" />
        </mxCell>
        <mxCell id="JxSoEKTKCqCzWXoLidXe-183" style="edgeStyle=none;rounded=0;orthogonalLoop=1;jettySize=auto;html=1;endArrow=oval;endFill=1;entryX=0.436;entryY=-0.129;entryDx=0;entryDy=0;entryPerimeter=0;" parent="1" target="JxSoEKTKCqCzWXoLidXe-184" edge="1">
          <mxGeometry relative="1" as="geometry">
            <mxPoint x="-1080" y="400" as="targetPoint" />
            <mxPoint x="-1043" y="380" as="sourcePoint" />
          </mxGeometry>
        </mxCell>
        <mxCell id="JxSoEKTKCqCzWXoLidXe-184" value="idLista" style="text;html=1;align=center;verticalAlign=middle;resizable=0;points=[];autosize=1;strokeColor=none;fillColor=none;" parent="1" vertex="1">
          <mxGeometry x="-1065" y="410" width="50" height="20" as="geometry" />
        </mxCell>
        <mxCell id="JxSoEKTKCqCzWXoLidXe-189" style="edgeStyle=none;rounded=0;orthogonalLoop=1;jettySize=auto;html=1;entryX=1;entryY=0.5;entryDx=0;entryDy=0;endArrow=classic;endFill=1;" parent="1" source="JxSoEKTKCqCzWXoLidXe-186" target="JxSoEKTKCqCzWXoLidXe-177" edge="1">
          <mxGeometry relative="1" as="geometry" />
        </mxCell>
        <mxCell id="JxSoEKTKCqCzWXoLidXe-190" style="edgeStyle=none;rounded=0;orthogonalLoop=1;jettySize=auto;html=1;entryX=1.037;entryY=0.394;entryDx=0;entryDy=0;entryPerimeter=0;endArrow=classic;endFill=1;" parent="1" target="JxSoEKTKCqCzWXoLidXe-179" edge="1">
          <mxGeometry relative="1" as="geometry">
            <mxPoint x="-930" y="344" as="sourcePoint" />
          </mxGeometry>
        </mxCell>
        <mxCell id="JxSoEKTKCqCzWXoLidXe-186" value="Tiene" style="rhombus;whiteSpace=wrap;html=1;" parent="1" vertex="1">
          <mxGeometry x="-930" y="260" width="40" height="50" as="geometry" />
        </mxCell>
        <mxCell id="JxSoEKTKCqCzWXoLidXe-193" style="edgeStyle=none;rounded=0;orthogonalLoop=1;jettySize=auto;html=1;endArrow=classic;endFill=1;entryX=0;entryY=0.5;entryDx=0;entryDy=0;exitX=0.5;exitY=1;exitDx=0;exitDy=0;" parent="1" source="Wr1tdi9X-l9FbxtCBq4g-55" target="JxSoEKTKCqCzWXoLidXe-177" edge="1">
          <mxGeometry relative="1" as="geometry">
            <mxPoint x="-1150.0000000000002" y="130" as="targetPoint" />
            <Array as="points" />
          </mxGeometry>
        </mxCell>
        <mxCell id="JxSoEKTKCqCzWXoLidXe-191" value="EstaIncluido" style="rhombus;whiteSpace=wrap;html=1;" parent="1" vertex="1">
          <mxGeometry x="-1220" y="70" width="80" height="80" as="geometry" />
        </mxCell>
        <mxCell id="JxSoEKTKCqCzWXoLidXe-194" style="edgeStyle=none;rounded=0;orthogonalLoop=1;jettySize=auto;html=1;entryX=0;entryY=0.5;entryDx=0;entryDy=0;endArrow=classic;endFill=1;exitX=0.5;exitY=1;exitDx=0;exitDy=0;" parent="1" source="JxSoEKTKCqCzWXoLidXe-191" target="JxSoEKTKCqCzWXoLidXe-179" edge="1">
          <mxGeometry relative="1" as="geometry">
            <mxPoint x="-1180" y="280" as="sourcePoint" />
            <mxPoint x="-1160" y="313.33" as="targetPoint" />
            <Array as="points">
              <mxPoint x="-1180" y="350" />
            </Array>
          </mxGeometry>
        </mxCell>
        <mxCell id="JxSoEKTKCqCzWXoLidXe-195" value="dapartamento" style="text;html=1;align=center;verticalAlign=middle;resizable=0;points=[];autosize=1;strokeColor=none;fillColor=none;" parent="1" vertex="1">
          <mxGeometry x="-580" y="150" width="90" height="20" as="geometry" />
        </mxCell>
        <mxCell id="JxSoEKTKCqCzWXoLidXe-199" style="edgeStyle=none;rounded=0;orthogonalLoop=1;jettySize=auto;html=1;entryX=0.883;entryY=1.205;entryDx=0;entryDy=0;entryPerimeter=0;endArrow=oval;endFill=1;" parent="1" source="JxSoEKTKCqCzWXoLidXe-197" target="JxSoEKTKCqCzWXoLidXe-198" edge="1">
          <mxGeometry relative="1" as="geometry" />
        </mxCell>
        <mxCell id="JxSoEKTKCqCzWXoLidXe-200" style="edgeStyle=none;rounded=0;orthogonalLoop=1;jettySize=auto;html=1;endArrow=oval;endFill=1;" parent="1" source="JxSoEKTKCqCzWXoLidXe-197" edge="1">
          <mxGeometry relative="1" as="geometry">
            <mxPoint x="-692.5" y="640" as="targetPoint" />
          </mxGeometry>
        </mxCell>
        <mxCell id="JxSoEKTKCqCzWXoLidXe-203" style="edgeStyle=none;rounded=0;orthogonalLoop=1;jettySize=auto;html=1;entryX=1;entryY=0.5;entryDx=0;entryDy=0;endArrow=classic;endFill=1;" parent="1" source="JxSoEKTKCqCzWXoLidXe-197" target="JxSoEKTKCqCzWXoLidXe-202" edge="1">
          <mxGeometry relative="1" as="geometry" />
        </mxCell>
        <mxCell id="JxSoEKTKCqCzWXoLidXe-221" style="edgeStyle=none;rounded=0;orthogonalLoop=1;jettySize=auto;html=1;endArrow=oval;endFill=1;" parent="1" source="JxSoEKTKCqCzWXoLidXe-197" edge="1">
          <mxGeometry relative="1" as="geometry">
            <mxPoint x="-662.5000000000005" y="749.9999999999995" as="targetPoint" />
          </mxGeometry>
        </mxCell>
        <mxCell id="JxSoEKTKCqCzWXoLidXe-197" value="Lista Medios de transporte&amp;nbsp;" style="whiteSpace=wrap;html=1;" parent="1" vertex="1">
          <mxGeometry x="-692.5" y="650" width="120" height="60" as="geometry" />
        </mxCell>
        <mxCell id="JxSoEKTKCqCzWXoLidXe-198" value="id Actividad" style="text;html=1;align=center;verticalAlign=middle;resizable=0;points=[];autosize=1;strokeColor=none;fillColor=none;" parent="1" vertex="1">
          <mxGeometry x="-652.5" y="610" width="80" height="20" as="geometry" />
        </mxCell>
        <mxCell id="JxSoEKTKCqCzWXoLidXe-201" value="IDTransportes" style="text;html=1;align=center;verticalAlign=middle;resizable=0;points=[];autosize=1;strokeColor=none;fillColor=none;" parent="1" vertex="1">
          <mxGeometry x="-742.5" y="610" width="90" height="20" as="geometry" />
        </mxCell>
        <mxCell id="JxSoEKTKCqCzWXoLidXe-204" style="edgeStyle=none;rounded=0;orthogonalLoop=1;jettySize=auto;html=1;endArrow=classic;endFill=1;" parent="1" source="JxSoEKTKCqCzWXoLidXe-202" edge="1">
          <mxGeometry relative="1" as="geometry">
            <mxPoint x="-882.5" y="690" as="targetPoint" />
          </mxGeometry>
        </mxCell>
        <mxCell id="JxSoEKTKCqCzWXoLidXe-202" value="contiene" style="rhombus;whiteSpace=wrap;html=1;" parent="1" vertex="1">
          <mxGeometry x="-822.5" y="650" width="80" height="80" as="geometry" />
        </mxCell>
        <mxCell id="JxSoEKTKCqCzWXoLidXe-214" style="edgeStyle=none;rounded=0;orthogonalLoop=1;jettySize=auto;html=1;endArrow=classic;endFill=1;entryX=1;entryY=0.5;entryDx=0;entryDy=0;" parent="1" source="JxSoEKTKCqCzWXoLidXe-212" target="JxSoEKTKCqCzWXoLidXe-116" edge="1">
          <mxGeometry relative="1" as="geometry">
            <mxPoint x="-630" y="890" as="targetPoint" />
            <Array as="points">
              <mxPoint x="-520" y="890" />
            </Array>
          </mxGeometry>
        </mxCell>
        <mxCell id="JxSoEKTKCqCzWXoLidXe-224" style="edgeStyle=none;rounded=0;orthogonalLoop=1;jettySize=auto;html=1;endArrow=oval;endFill=1;entryX=0.486;entryY=1.137;entryDx=0;entryDy=0;entryPerimeter=0;" parent="1" source="JxSoEKTKCqCzWXoLidXe-212" target="JxSoEKTKCqCzWXoLidXe-225" edge="1">
          <mxGeometry relative="1" as="geometry">
            <mxPoint x="-70.00000000000045" y="489.99999999999955" as="targetPoint" />
          </mxGeometry>
        </mxCell>
        <mxCell id="JxSoEKTKCqCzWXoLidXe-226" style="edgeStyle=none;rounded=0;orthogonalLoop=1;jettySize=auto;html=1;endArrow=oval;endFill=1;" parent="1" source="JxSoEKTKCqCzWXoLidXe-212" edge="1">
          <mxGeometry relative="1" as="geometry">
            <mxPoint x="-130" y="760" as="targetPoint" />
          </mxGeometry>
        </mxCell>
        <mxCell id="JxSoEKTKCqCzWXoLidXe-277" style="edgeStyle=none;rounded=0;orthogonalLoop=1;jettySize=auto;html=1;entryX=0.85;entryY=1.137;entryDx=0;entryDy=0;entryPerimeter=0;endArrow=oval;endFill=1;" parent="1" source="JxSoEKTKCqCzWXoLidXe-212" target="JxSoEKTKCqCzWXoLidXe-276" edge="1">
          <mxGeometry relative="1" as="geometry" />
        </mxCell>
        <mxCell id="JxSoEKTKCqCzWXoLidXe-212" value="ListaGruposParticipantes" style="whiteSpace=wrap;html=1;" parent="1" vertex="1">
          <mxGeometry x="-300" y="850" width="165" height="60" as="geometry" />
        </mxCell>
        <mxCell id="JxSoEKTKCqCzWXoLidXe-220" value="idTransporte" style="text;html=1;align=center;verticalAlign=middle;resizable=0;points=[];autosize=1;strokeColor=none;fillColor=none;" parent="1" vertex="1">
          <mxGeometry x="-700" y="760" width="80" height="20" as="geometry" />
        </mxCell>
        <mxCell id="JxSoEKTKCqCzWXoLidXe-225" value="IdSolicitud" style="text;html=1;align=center;verticalAlign=middle;resizable=0;points=[];autosize=1;strokeColor=none;fillColor=none;" parent="1" vertex="1">
          <mxGeometry x="-235" y="720" width="70" height="20" as="geometry" />
        </mxCell>
        <mxCell id="JxSoEKTKCqCzWXoLidXe-227" value="Grupo" style="text;html=1;align=center;verticalAlign=middle;resizable=0;points=[];autosize=1;strokeColor=none;fillColor=none;" parent="1" vertex="1">
          <mxGeometry x="-160" y="730" width="50" height="20" as="geometry" />
        </mxCell>
        <mxCell id="JxSoEKTKCqCzWXoLidXe-231" value="IdActividad" style="text;html=1;align=center;verticalAlign=middle;resizable=0;points=[];autosize=1;strokeColor=none;fillColor=none;" parent="1" vertex="1">
          <mxGeometry x="-505" y="460" width="70" height="20" as="geometry" />
        </mxCell>
        <mxCell id="JxSoEKTKCqCzWXoLidXe-234" value="IDCursosParticipantes" style="text;html=1;align=center;verticalAlign=middle;resizable=0;points=[];autosize=1;strokeColor=none;fillColor=none;" parent="1" vertex="1">
          <mxGeometry x="-852.5" y="240" width="130" height="20" as="geometry" />
        </mxCell>
        <mxCell id="JxSoEKTKCqCzWXoLidXe-236" value="Grupos Participantes" style="text;html=1;align=center;verticalAlign=middle;resizable=0;points=[];autosize=1;strokeColor=none;fillColor=none;" parent="1" vertex="1">
          <mxGeometry x="-630" y="220" width="130" height="20" as="geometry" />
        </mxCell>
        <mxCell id="JxSoEKTKCqCzWXoLidXe-246" style="edgeStyle=none;rounded=0;orthogonalLoop=1;jettySize=auto;html=1;entryX=0;entryY=0.5;entryDx=0;entryDy=0;endArrow=classic;endFill=1;" parent="1" source="JxSoEKTKCqCzWXoLidXe-242" target="JxSoEKTKCqCzWXoLidXe-245" edge="1">
          <mxGeometry relative="1" as="geometry" />
        </mxCell>
        <mxCell id="JxSoEKTKCqCzWXoLidXe-280" style="edgeStyle=none;rounded=0;orthogonalLoop=1;jettySize=auto;html=1;endArrow=oval;endFill=1;" parent="1" source="JxSoEKTKCqCzWXoLidXe-242" edge="1">
          <mxGeometry relative="1" as="geometry">
            <mxPoint x="-140" y="410" as="targetPoint" />
          </mxGeometry>
        </mxCell>
        <mxCell id="Wr1tdi9X-l9FbxtCBq4g-4" style="edgeStyle=orthogonalEdgeStyle;rounded=0;orthogonalLoop=1;jettySize=auto;html=1;exitX=0.75;exitY=1;exitDx=0;exitDy=0;endArrow=oval;endFill=1;" parent="1" source="JxSoEKTKCqCzWXoLidXe-242" edge="1">
          <mxGeometry relative="1" as="geometry">
            <mxPoint x="-100" y="380" as="targetPoint" />
            <Array as="points">
              <mxPoint x="-100" y="350" />
            </Array>
          </mxGeometry>
        </mxCell>
        <mxCell id="JxSoEKTKCqCzWXoLidXe-242" value="ListaFotos" style="whiteSpace=wrap;html=1;" parent="1" vertex="1">
          <mxGeometry x="-200" y="290" width="120" height="60" as="geometry" />
        </mxCell>
        <mxCell id="JxSoEKTKCqCzWXoLidXe-247" style="edgeStyle=none;rounded=0;orthogonalLoop=1;jettySize=auto;html=1;entryX=0;entryY=0.5;entryDx=0;entryDy=0;endArrow=classic;endFill=1;" parent="1" source="JxSoEKTKCqCzWXoLidXe-245" target="JxSoEKTKCqCzWXoLidXe-119" edge="1">
          <mxGeometry relative="1" as="geometry" />
        </mxCell>
        <mxCell id="JxSoEKTKCqCzWXoLidXe-245" value="Tiene" style="rhombus;whiteSpace=wrap;html=1;" parent="1" vertex="1">
          <mxGeometry x="10" y="285" width="80" height="80" as="geometry" />
        </mxCell>
        <mxCell id="JxSoEKTKCqCzWXoLidXe-254" style="edgeStyle=none;rounded=0;orthogonalLoop=1;jettySize=auto;html=1;entryX=0;entryY=0.5;entryDx=0;entryDy=0;endArrow=classic;endFill=1;" parent="1" source="JxSoEKTKCqCzWXoLidXe-249" target="JxSoEKTKCqCzWXoLidXe-252" edge="1">
          <mxGeometry relative="1" as="geometry" />
        </mxCell>
        <mxCell id="JxSoEKTKCqCzWXoLidXe-259" style="edgeStyle=none;rounded=0;orthogonalLoop=1;jettySize=auto;html=1;entryX=0.987;entryY=1.137;entryDx=0;entryDy=0;entryPerimeter=0;endArrow=oval;endFill=1;" parent="1" source="JxSoEKTKCqCzWXoLidXe-249" target="JxSoEKTKCqCzWXoLidXe-258" edge="1">
          <mxGeometry relative="1" as="geometry" />
        </mxCell>
        <mxCell id="JxSoEKTKCqCzWXoLidXe-260" value="" style="edgeStyle=none;rounded=0;orthogonalLoop=1;jettySize=auto;html=1;endArrow=oval;endFill=1;" parent="1" source="JxSoEKTKCqCzWXoLidXe-249" target="JxSoEKTKCqCzWXoLidXe-256" edge="1">
          <mxGeometry relative="1" as="geometry" />
        </mxCell>
        <mxCell id="JxSoEKTKCqCzWXoLidXe-262" style="edgeStyle=none;rounded=0;orthogonalLoop=1;jettySize=auto;html=1;endArrow=oval;endFill=1;" parent="1" source="JxSoEKTKCqCzWXoLidXe-249" target="JxSoEKTKCqCzWXoLidXe-261" edge="1">
          <mxGeometry relative="1" as="geometry" />
        </mxCell>
        <mxCell id="JxSoEKTKCqCzWXoLidXe-249" value="ListaAlojamientos" style="whiteSpace=wrap;html=1;" parent="1" vertex="1">
          <mxGeometry x="-275" y="180" width="120" height="60" as="geometry" />
        </mxCell>
        <mxCell id="JxSoEKTKCqCzWXoLidXe-253" style="edgeStyle=none;rounded=0;orthogonalLoop=1;jettySize=auto;html=1;entryX=0;entryY=0.5;entryDx=0;entryDy=0;endArrow=classic;endFill=1;" parent="1" source="JxSoEKTKCqCzWXoLidXe-252" target="JxSoEKTKCqCzWXoLidXe-113" edge="1">
          <mxGeometry relative="1" as="geometry" />
        </mxCell>
        <mxCell id="JxSoEKTKCqCzWXoLidXe-252" value="Contiene" style="rhombus;whiteSpace=wrap;html=1;" parent="1" vertex="1">
          <mxGeometry x="-105" y="170" width="80" height="80" as="geometry" />
        </mxCell>
        <mxCell id="JxSoEKTKCqCzWXoLidXe-256" value="IDListaAlojamientos" style="text;html=1;align=center;verticalAlign=middle;resizable=0;points=[];autosize=1;strokeColor=none;fillColor=none;" parent="1" vertex="1">
          <mxGeometry x="-320" y="130" width="120" height="20" as="geometry" />
        </mxCell>
        <mxCell id="JxSoEKTKCqCzWXoLidXe-258" value="IDActividad" style="text;html=1;align=center;verticalAlign=middle;resizable=0;points=[];autosize=1;strokeColor=none;fillColor=none;" parent="1" vertex="1">
          <mxGeometry x="-370" y="160" width="80" height="20" as="geometry" />
        </mxCell>
        <mxCell id="JxSoEKTKCqCzWXoLidXe-261" value="IdAlojamiento" style="text;html=1;align=center;verticalAlign=middle;resizable=0;points=[];autosize=1;strokeColor=none;fillColor=none;" parent="1" vertex="1">
          <mxGeometry x="-295" y="260" width="90" height="20" as="geometry" />
        </mxCell>
        <mxCell id="JxSoEKTKCqCzWXoLidXe-264" value="listaFotos" style="text;html=1;align=center;verticalAlign=middle;resizable=0;points=[];autosize=1;strokeColor=none;fillColor=none;" parent="1" vertex="1">
          <mxGeometry x="-470" y="430" width="70" height="20" as="geometry" />
        </mxCell>
        <mxCell id="JxSoEKTKCqCzWXoLidXe-265" value="ListaTransporte" style="text;html=1;align=center;verticalAlign=middle;resizable=0;points=[];autosize=1;strokeColor=none;fillColor=none;" parent="1" vertex="1">
          <mxGeometry x="-620" y="490" width="100" height="20" as="geometry" />
        </mxCell>
        <mxCell id="JxSoEKTKCqCzWXoLidXe-268" value="ListaAlojamientos" style="text;html=1;align=center;verticalAlign=middle;resizable=0;points=[];autosize=1;strokeColor=none;fillColor=none;" parent="1" vertex="1">
          <mxGeometry x="-460" y="400" width="110" height="20" as="geometry" />
        </mxCell>
        <mxCell id="JxSoEKTKCqCzWXoLidXe-270" value="Descripcion" style="text;html=1;align=center;verticalAlign=middle;resizable=0;points=[];autosize=1;strokeColor=none;fillColor=none;" parent="1" vertex="1">
          <mxGeometry x="-410" y="590" width="80" height="20" as="geometry" />
        </mxCell>
        <mxCell id="JxSoEKTKCqCzWXoLidXe-271" value="CantidadFinalDeAlumnos" style="text;html=1;align=center;verticalAlign=middle;resizable=0;points=[];autosize=1;strokeColor=none;fillColor=none;" parent="1" vertex="1">
          <mxGeometry x="-625" y="440" width="150" height="20" as="geometry" />
        </mxCell>
        <mxCell id="JxSoEKTKCqCzWXoLidXe-273" value="Estado" style="text;html=1;align=center;verticalAlign=middle;resizable=0;points=[];autosize=1;strokeColor=none;fillColor=none;" parent="1" vertex="1">
          <mxGeometry x="-520" y="360" width="50" height="20" as="geometry" />
        </mxCell>
        <mxCell id="JxSoEKTKCqCzWXoLidXe-276" value="curso" style="text;html=1;align=center;verticalAlign=middle;resizable=0;points=[];autosize=1;strokeColor=none;fillColor=none;" parent="1" vertex="1">
          <mxGeometry x="-300" y="720" width="40" height="20" as="geometry" />
        </mxCell>
        <mxCell id="JxSoEKTKCqCzWXoLidXe-281" value="idLista" style="text;html=1;align=center;verticalAlign=middle;resizable=0;points=[];autosize=1;strokeColor=none;fillColor=none;" parent="1" vertex="1">
          <mxGeometry x="-165" y="420" width="50" height="20" as="geometry" />
        </mxCell>
        <mxCell id="Wr1tdi9X-l9FbxtCBq4g-1" value="url&lt;br&gt;" style="text;html=1;align=center;verticalAlign=middle;resizable=0;points=[];autosize=1;strokeColor=none;fillColor=none;" parent="1" vertex="1">
          <mxGeometry x="-110" y="380" width="30" height="20" as="geometry" />
        </mxCell>
        <mxCell id="Wr1tdi9X-l9FbxtCBq4g-6" value="(1,1)" style="text;html=1;align=center;verticalAlign=middle;resizable=0;points=[];autosize=1;strokeColor=none;fillColor=none;" parent="1" vertex="1">
          <mxGeometry x="235" y="530" width="40" height="20" as="geometry" />
        </mxCell>
        <mxCell id="Wr1tdi9X-l9FbxtCBq4g-7" value="(1,1)" style="text;html=1;align=center;verticalAlign=middle;resizable=0;points=[];autosize=1;strokeColor=none;fillColor=none;" parent="1" vertex="1">
          <mxGeometry x="190" y="830" width="40" height="20" as="geometry" />
        </mxCell>
        <mxCell id="Wr1tdi9X-l9FbxtCBq4g-8" value="(1,N)" style="text;html=1;align=center;verticalAlign=middle;resizable=0;points=[];autosize=1;strokeColor=none;fillColor=none;" parent="1" vertex="1">
          <mxGeometry x="185" y="600" width="40" height="20" as="geometry" />
        </mxCell>
        <mxCell id="Wr1tdi9X-l9FbxtCBq4g-9" value="1:N" style="text;html=1;align=center;verticalAlign=middle;resizable=0;points=[];autosize=1;strokeColor=none;fillColor=none;" parent="1" vertex="1">
          <mxGeometry x="230" y="710" width="30" height="20" as="geometry" />
        </mxCell>
        <mxCell id="Wr1tdi9X-l9FbxtCBq4g-11" value="Compone&lt;br&gt;" style="rhombus;whiteSpace=wrap;html=1;" parent="1" vertex="1">
          <mxGeometry x="-30" y="700" width="80" height="80" as="geometry" />
        </mxCell>
        <mxCell id="Wr1tdi9X-l9FbxtCBq4g-14" value="(0,1)" style="text;html=1;align=center;verticalAlign=middle;resizable=0;points=[];autosize=1;strokeColor=none;fillColor=none;" parent="1" vertex="1">
          <mxGeometry x="-155" y="815" width="50" height="30" as="geometry" />
        </mxCell>
        <mxCell id="Wr1tdi9X-l9FbxtCBq4g-15" value="(1:N)" style="text;html=1;align=center;verticalAlign=middle;resizable=0;points=[];autosize=1;strokeColor=none;fillColor=none;" parent="1" vertex="1">
          <mxGeometry x="70" y="590" width="40" height="20" as="geometry" />
        </mxCell>
        <mxCell id="Wr1tdi9X-l9FbxtCBq4g-16" value="1:N" style="text;html=1;align=center;verticalAlign=middle;resizable=0;points=[];autosize=1;strokeColor=none;fillColor=none;" parent="1" vertex="1">
          <mxGeometry x="-50" y="685" width="40" height="30" as="geometry" />
        </mxCell>
        <mxCell id="Wr1tdi9X-l9FbxtCBq4g-17" value="(1,1)" style="text;html=1;align=center;verticalAlign=middle;resizable=0;points=[];autosize=1;strokeColor=none;fillColor=none;" parent="1" vertex="1">
          <mxGeometry x="-740" y="380" width="40" height="20" as="geometry" />
        </mxCell>
        <mxCell id="Wr1tdi9X-l9FbxtCBq4g-18" value="(1,1)" style="text;html=1;align=center;verticalAlign=middle;resizable=0;points=[];autosize=1;strokeColor=none;fillColor=none;" parent="1" vertex="1">
          <mxGeometry x="-350" y="860" width="40" height="20" as="geometry" />
        </mxCell>
        <mxCell id="Wr1tdi9X-l9FbxtCBq4g-19" value="1:1" style="text;html=1;align=center;verticalAlign=middle;resizable=0;points=[];autosize=1;strokeColor=none;fillColor=none;" parent="1" vertex="1">
          <mxGeometry x="-1135" y="860" width="30" height="20" as="geometry" />
        </mxCell>
        <mxCell id="Wr1tdi9X-l9FbxtCBq4g-20" value="(1,N)" style="text;html=1;align=center;verticalAlign=middle;resizable=0;points=[];autosize=1;strokeColor=none;fillColor=none;" parent="1" vertex="1">
          <mxGeometry x="-890" y="660" width="40" height="20" as="geometry" />
        </mxCell>
        <mxCell id="Wr1tdi9X-l9FbxtCBq4g-21" value="(0,1)" style="text;html=1;align=center;verticalAlign=middle;resizable=0;points=[];autosize=1;strokeColor=none;fillColor=none;" parent="1" vertex="1">
          <mxGeometry x="-745" y="645" width="50" height="30" as="geometry" />
        </mxCell>
        <mxCell id="Wr1tdi9X-l9FbxtCBq4g-22" value="1:N" style="text;html=1;align=center;verticalAlign=middle;resizable=0;points=[];autosize=1;strokeColor=none;fillColor=none;" parent="1" vertex="1">
          <mxGeometry x="-810" y="620" width="40" height="30" as="geometry" />
        </mxCell>
        <mxCell id="Wr1tdi9X-l9FbxtCBq4g-23" value="(1,1)" style="text;html=1;align=center;verticalAlign=middle;resizable=0;points=[];autosize=1;strokeColor=none;fillColor=none;" parent="1" vertex="1">
          <mxGeometry x="-570" y="650" width="40" height="20" as="geometry" />
        </mxCell>
        <mxCell id="Wr1tdi9X-l9FbxtCBq4g-24" value="(1,1)" style="text;html=1;align=center;verticalAlign=middle;resizable=0;points=[];autosize=1;strokeColor=none;fillColor=none;" parent="1" vertex="1">
          <mxGeometry x="-460" y="580" width="40" height="20" as="geometry" />
        </mxCell>
        <mxCell id="Wr1tdi9X-l9FbxtCBq4g-25" value="1:1" style="text;html=1;align=center;verticalAlign=middle;resizable=0;points=[];autosize=1;strokeColor=none;fillColor=none;" parent="1" vertex="1">
          <mxGeometry x="-415" y="660" width="30" height="20" as="geometry" />
        </mxCell>
        <mxCell id="Wr1tdi9X-l9FbxtCBq4g-27" value="(1,1)" style="text;html=1;align=center;verticalAlign=middle;resizable=0;points=[];autosize=1;strokeColor=none;fillColor=none;" parent="1" vertex="1">
          <mxGeometry x="-535" y="530" width="40" height="20" as="geometry" />
        </mxCell>
        <mxCell id="Wr1tdi9X-l9FbxtCBq4g-28" value="(1,1)" style="text;html=1;align=center;verticalAlign=middle;resizable=0;points=[];autosize=1;strokeColor=none;fillColor=none;" parent="1" vertex="1">
          <mxGeometry x="-700" y="410" width="40" height="20" as="geometry" />
        </mxCell>
        <mxCell id="Wr1tdi9X-l9FbxtCBq4g-30" value="1:1" style="text;html=1;align=center;verticalAlign=middle;resizable=0;points=[];autosize=1;strokeColor=none;fillColor=none;" parent="1" vertex="1">
          <mxGeometry x="-625" y="520" width="30" height="20" as="geometry" />
        </mxCell>
        <mxCell id="Wr1tdi9X-l9FbxtCBq4g-31" value="(1,1)" style="text;html=1;align=center;verticalAlign=middle;resizable=0;points=[];autosize=1;strokeColor=none;fillColor=none;" parent="1" vertex="1">
          <mxGeometry x="-240" y="290" width="40" height="20" as="geometry" />
        </mxCell>
        <mxCell id="Wr1tdi9X-l9FbxtCBq4g-32" value="(1,1)" style="text;html=1;align=center;verticalAlign=middle;resizable=0;points=[];autosize=1;strokeColor=none;fillColor=none;" parent="1" vertex="1">
          <mxGeometry x="-370" y="500" width="40" height="20" as="geometry" />
        </mxCell>
        <mxCell id="Wr1tdi9X-l9FbxtCBq4g-33" value="1:1" style="text;html=1;align=center;verticalAlign=middle;resizable=0;points=[];autosize=1;strokeColor=none;fillColor=none;" parent="1" vertex="1">
          <mxGeometry x="-295" y="290" width="30" height="20" as="geometry" />
        </mxCell>
        <mxCell id="Wr1tdi9X-l9FbxtCBq4g-34" value="1:1" style="text;html=1;align=center;verticalAlign=middle;resizable=0;points=[];autosize=1;strokeColor=none;fillColor=none;" parent="1" vertex="1">
          <mxGeometry x="-405" y="180" width="30" height="20" as="geometry" />
        </mxCell>
        <mxCell id="Wr1tdi9X-l9FbxtCBq4g-36" value="(1,1)" style="text;html=1;align=center;verticalAlign=middle;resizable=0;points=[];autosize=1;strokeColor=none;fillColor=none;" parent="1" vertex="1">
          <mxGeometry x="-330" y="190" width="40" height="20" as="geometry" />
        </mxCell>
        <mxCell id="Wr1tdi9X-l9FbxtCBq4g-37" value="(1,1)" style="text;html=1;align=center;verticalAlign=middle;resizable=0;points=[];autosize=1;strokeColor=none;fillColor=none;" parent="1" vertex="1">
          <mxGeometry x="-400" y="490" width="40" height="20" as="geometry" />
        </mxCell>
        <mxCell id="Wr1tdi9X-l9FbxtCBq4g-38" value="(1,N)" style="text;html=1;align=center;verticalAlign=middle;resizable=0;points=[];autosize=1;strokeColor=none;fillColor=none;" parent="1" vertex="1">
          <mxGeometry x="110" y="300" width="40" height="20" as="geometry" />
        </mxCell>
        <mxCell id="Wr1tdi9X-l9FbxtCBq4g-39" value="(0,1)" style="text;html=1;align=center;verticalAlign=middle;resizable=0;points=[];autosize=1;strokeColor=none;fillColor=none;" parent="1" vertex="1">
          <mxGeometry x="-90" y="295" width="50" height="30" as="geometry" />
        </mxCell>
        <mxCell id="Wr1tdi9X-l9FbxtCBq4g-40" value="1:N" style="text;html=1;align=center;verticalAlign=middle;resizable=0;points=[];autosize=1;strokeColor=none;fillColor=none;" parent="1" vertex="1">
          <mxGeometry x="30" y="365" width="40" height="30" as="geometry" />
        </mxCell>
        <mxCell id="Wr1tdi9X-l9FbxtCBq4g-42" value="(0,1)" style="text;html=1;align=center;verticalAlign=middle;resizable=0;points=[];autosize=1;strokeColor=none;fillColor=none;" parent="1" vertex="1">
          <mxGeometry x="-155" y="185" width="50" height="30" as="geometry" />
        </mxCell>
        <mxCell id="Wr1tdi9X-l9FbxtCBq4g-43" value="(1,N)" style="text;html=1;align=center;verticalAlign=middle;resizable=0;points=[];autosize=1;strokeColor=none;fillColor=none;" parent="1" vertex="1">
          <mxGeometry x="-20" y="180" width="40" height="20" as="geometry" />
        </mxCell>
        <mxCell id="Wr1tdi9X-l9FbxtCBq4g-45" value="Tiene" style="rhombus;whiteSpace=wrap;html=1;" parent="1" vertex="1">
          <mxGeometry x="-930" y="320" width="40" height="50" as="geometry" />
        </mxCell>
        <mxCell id="Wr1tdi9X-l9FbxtCBq4g-47" value="(0,N)" style="text;html=1;align=center;verticalAlign=middle;resizable=0;points=[];autosize=1;strokeColor=none;fillColor=none;" parent="1" vertex="1">
          <mxGeometry x="-692.5" y="260" width="40" height="20" as="geometry" />
        </mxCell>
        <mxCell id="Wr1tdi9X-l9FbxtCBq4g-48" value="(1,1)" style="text;html=1;align=center;verticalAlign=middle;resizable=0;points=[];autosize=1;strokeColor=none;fillColor=none;" parent="1" vertex="1">
          <mxGeometry x="-690" y="120" width="40" height="20" as="geometry" />
        </mxCell>
        <mxCell id="Wr1tdi9X-l9FbxtCBq4g-49" value="1:N" style="text;html=1;align=center;verticalAlign=middle;resizable=0;points=[];autosize=1;strokeColor=none;fillColor=none;" parent="1" vertex="1">
          <mxGeometry x="-780" y="210" width="30" height="20" as="geometry" />
        </mxCell>
        <mxCell id="Wr1tdi9X-l9FbxtCBq4g-50" value="(1,1)&amp;nbsp; (1,1)" style="text;html=1;align=center;verticalAlign=middle;resizable=0;points=[];autosize=1;strokeColor=none;fillColor=none;" parent="1" vertex="1">
          <mxGeometry x="-825" y="320" width="70" height="20" as="geometry" />
        </mxCell>
        <mxCell id="Wr1tdi9X-l9FbxtCBq4g-51" value="1:1" style="text;html=1;align=center;verticalAlign=middle;resizable=0;points=[];autosize=1;strokeColor=none;fillColor=none;" parent="1" vertex="1">
          <mxGeometry x="-925" y="230" width="30" height="20" as="geometry" />
        </mxCell>
        <mxCell id="Wr1tdi9X-l9FbxtCBq4g-52" value="1:1" style="text;html=1;align=center;verticalAlign=middle;resizable=0;points=[];autosize=1;strokeColor=none;fillColor=none;" parent="1" vertex="1">
          <mxGeometry x="-925" y="380" width="30" height="20" as="geometry" />
        </mxCell>
        <mxCell id="Wr1tdi9X-l9FbxtCBq4g-53" value="(1,1)" style="text;html=1;align=center;verticalAlign=middle;resizable=0;points=[];autosize=1;strokeColor=none;fillColor=none;" parent="1" vertex="1">
          <mxGeometry x="-980" y="250" width="40" height="20" as="geometry" />
        </mxCell>
        <mxCell id="Wr1tdi9X-l9FbxtCBq4g-54" value="(1,1)" style="text;html=1;align=center;verticalAlign=middle;resizable=0;points=[];autosize=1;strokeColor=none;fillColor=none;" parent="1" vertex="1">
          <mxGeometry x="-980" y="320" width="40" height="20" as="geometry" />
        </mxCell>
        <mxCell id="Wr1tdi9X-l9FbxtCBq4g-55" value="EstaIncluido" style="rhombus;whiteSpace=wrap;html=1;" parent="1" vertex="1">
          <mxGeometry x="-1157.5" y="140" width="80" height="80" as="geometry" />
        </mxCell>
        <mxCell id="Wr1tdi9X-l9FbxtCBq4g-59" value="(0,1)" style="text;html=1;align=center;verticalAlign=middle;resizable=0;points=[];autosize=1;strokeColor=none;fillColor=none;" parent="1" vertex="1">
          <mxGeometry x="-1122.5" y="225" width="50" height="30" as="geometry" />
        </mxCell>
        <mxCell id="Wr1tdi9X-l9FbxtCBq4g-60" value="(0,1)" style="text;html=1;align=center;verticalAlign=middle;resizable=0;points=[];autosize=1;strokeColor=none;fillColor=none;" parent="1" vertex="1">
          <mxGeometry x="-1145" y="325" width="50" height="30" as="geometry" />
        </mxCell>
        <mxCell id="Wr1tdi9X-l9FbxtCBq4g-61" value="(1,N)" style="text;html=1;align=center;verticalAlign=middle;resizable=0;points=[];autosize=1;strokeColor=none;fillColor=none;" parent="1" vertex="1">
          <mxGeometry x="-740" y="70" width="40" height="20" as="geometry" />
        </mxCell>
        <mxCell id="Wr1tdi9X-l9FbxtCBq4g-62" value="(1,N)" style="text;html=1;align=center;verticalAlign=middle;resizable=0;points=[];autosize=1;strokeColor=none;fillColor=none;" parent="1" vertex="1">
          <mxGeometry x="-740" y="110" width="40" height="20" as="geometry" />
        </mxCell>
        <mxCell id="Wr1tdi9X-l9FbxtCBq4g-63" value="1:N" style="text;html=1;align=center;verticalAlign=middle;resizable=0;points=[];autosize=1;strokeColor=none;fillColor=none;" parent="1" vertex="1">
          <mxGeometry x="-1120" y="115" width="40" height="30" as="geometry" />
        </mxCell>
        <mxCell id="Wr1tdi9X-l9FbxtCBq4g-64" value="1:N" style="text;html=1;align=center;verticalAlign=middle;resizable=0;points=[];autosize=1;strokeColor=none;fillColor=none;" parent="1" vertex="1">
          <mxGeometry x="-1200" y="45" width="40" height="30" as="geometry" />
        </mxCell>
        <mxCell id="Wr1tdi9X-l9FbxtCBq4g-65" value="(0,1)" style="text;html=1;align=center;verticalAlign=middle;resizable=0;points=[];autosize=1;strokeColor=none;fillColor=none;" parent="1" vertex="1">
          <mxGeometry x="-190" y="40" width="40" height="20" as="geometry" />
        </mxCell>
        <mxCell id="Wr1tdi9X-l9FbxtCBq4g-66" value="(1,1)" style="text;html=1;align=center;verticalAlign=middle;resizable=0;points=[];autosize=1;strokeColor=none;fillColor=none;" parent="1" vertex="1">
          <mxGeometry x="-607.5" y="40" width="40" height="20" as="geometry" />
        </mxCell>
        <mxCell id="Wr1tdi9X-l9FbxtCBq4g-67" value="(1,1)" style="text;html=1;align=center;verticalAlign=middle;resizable=0;points=[];autosize=1;strokeColor=none;fillColor=none;" parent="1" vertex="1">
          <mxGeometry x="-260" y="60" width="40" height="20" as="geometry" />
        </mxCell>
        <mxCell id="Wr1tdi9X-l9FbxtCBq4g-68" value="1:1" style="text;html=1;align=center;verticalAlign=middle;resizable=0;points=[];autosize=1;strokeColor=none;fillColor=none;" parent="1" vertex="1">
          <mxGeometry x="-385" y="-60" width="30" height="20" as="geometry" />
        </mxCell>
        <mxCell id="Wr1tdi9X-l9FbxtCBq4g-69" value="(1,N)" style="text;html=1;align=center;verticalAlign=middle;resizable=0;points=[];autosize=1;strokeColor=none;fillColor=none;" parent="1" vertex="1">
          <mxGeometry x="-570" y="70" width="40" height="20" as="geometry" />
        </mxCell>
        <mxCell id="Wr1tdi9X-l9FbxtCBq4g-70" value="1:N" style="text;html=1;align=center;verticalAlign=middle;resizable=0;points=[];autosize=1;strokeColor=none;fillColor=none;" parent="1" vertex="1">
          <mxGeometry x="-385" y="130" width="30" height="20" as="geometry" />
        </mxCell>
        <mxCell id="qkmmCmdhEapNgKXd97t2-1" value="1:N" style="text;html=1;align=center;verticalAlign=middle;resizable=0;points=[];autosize=1;strokeColor=none;fillColor=none;" vertex="1" parent="1">
          <mxGeometry x="-80" y="248" width="40" height="30" as="geometry" />
        </mxCell>
      </root>
    </mxGraphModel>
  </diagram>
</mxfile>
